<svg xmlns="http://www.w3.org/2000/svg" xmlns:xlink="http://www.w3.org/1999/xlink" width="1080" zoomAndPan="magnify" viewBox="0 0 810 809.999993" height="1080" preserveAspectRatio="xMidYMid meet" version="1.0"><defs><clipPath id="1dcf5a82ef"><path d="M 5.1875 114.785156 L 407 114.785156 L 407 695.136719 L 5.1875 695.136719 Z M 5.1875 114.785156 " clip-rule="nonzero"/></clipPath><clipPath id="642dd5ceb3"><path d="M 372.398438 114.785156 L 804.6875 114.785156 L 804.6875 695.136719 L 372.398438 695.136719 Z M 372.398438 114.785156 " clip-rule="nonzero"/></clipPath><clipPath id="66f5fd151a"><path d="M 283.5 516.96875 L 293.03125 516.96875 L 293.03125 526.5 L 283.5 526.5 Z M 283.5 516.96875 " clip-rule="nonzero"/></clipPath><clipPath id="59dc16c3cf"><path d="M 288.265625 516.96875 C 285.632812 516.96875 283.5 519.105469 283.5 521.734375 C 283.5 524.367188 285.632812 526.5 288.265625 526.5 C 290.894531 526.5 293.03125 524.367188 293.03125 521.734375 C 293.03125 519.105469 290.894531 516.96875 288.265625 516.96875 Z M 288.265625 516.96875 " clip-rule="nonzero"/></clipPath></defs><g clip-path="url(#1dcf5a82ef)"><path fill="#486e7f" d="M 282.726562 272.261719 C 288.292969 229.753906 317.082031 186.5625 350.667969 152.976562 C 366.277344 137.371094 384.253906 124.1875 406.90625 114.832031 C 406.894531 114.816406 406.894531 114.8125 406.894531 114.804688 C 406.890625 114.804688 406.890625 114.804688 406.890625 114.804688 C 406.890625 114.796875 406.890625 114.792969 406.882812 114.78125 C 298.933594 114.78125 5.1875 193.109375 5.1875 479.269531 C 5.1875 598.503906 101.875 695.191406 221.113281 695.191406 C 223.945312 695.191406 226.785156 695.132812 229.640625 695.027344 C 287.210938 692.808594 339.257812 667.5625 376.824219 628.347656 C 381.582031 623.378906 382.289062 615.804688 378.644531 609.964844 C 354.953125 572.007812 341.226562 527.21875 341.226562 479.269531 C 341.226562 428.785156 351.386719 388.433594 374.085938 348.558594 L 374.246094 348.25 C 374.773438 347.265625 375.332031 346.238281 375.949219 345.210938 C 375.96875 345.179688 375.988281 345.148438 376.007812 345.109375 C 379.578125 339.175781 378.707031 331.566406 373.808594 326.664062 C 348.761719 301.597656 317.601562 282.640625 282.726562 272.261719 " fill-opacity="1" fill-rule="nonzero"/></g><g clip-path="url(#642dd5ceb3)"><path fill="#486e7f" d="M 685.546875 286.160156 C 685.457031 286.113281 685.375 286.070312 685.285156 286.027344 C 684.28125 285.527344 683.269531 285.027344 682.261719 284.539062 C 682.0625 284.445312 681.867188 284.359375 681.679688 284.261719 C 680.710938 283.800781 679.746094 283.347656 678.773438 282.90625 C 678.570312 282.808594 678.367188 282.722656 678.171875 282.632812 C 675.390625 281.367188 672.578125 280.160156 669.742188 279.011719 C 669.15625 278.777344 668.578125 278.539062 667.992188 278.308594 C 667.359375 278.058594 666.726562 277.816406 666.097656 277.578125 C 665.417969 277.316406 664.738281 277.058594 664.0625 276.804688 C 663.46875 276.585938 662.875 276.371094 662.28125 276.15625 C 661.535156 275.882812 660.789062 275.617188 660.035156 275.359375 C 659.492188 275.164062 658.949219 274.972656 658.398438 274.789062 C 657.546875 274.5 656.6875 274.214844 655.832031 273.9375 C 655.371094 273.785156 654.925781 273.632812 654.460938 273.488281 C 653.148438 273.070312 651.820312 272.660156 650.496094 272.261719 C 656.0625 229.753906 684.851562 186.5625 718.4375 152.976562 C 734.042969 137.371094 752.027344 124.1875 774.675781 114.832031 C 774.667969 114.816406 774.664062 114.8125 774.664062 114.804688 C 774.65625 114.804688 774.65625 114.804688 774.65625 114.804688 C 774.65625 114.796875 774.65625 114.792969 774.644531 114.78125 C 667.335938 114.78125 376.425781 192.195312 372.992188 474.226562 C 372.972656 475.894531 372.957031 477.570312 372.957031 479.269531 C 372.957031 598.503906 469.644531 695.191406 588.882812 695.191406 C 591.714844 695.191406 594.550781 695.132812 597.40625 695.027344 C 599.253906 694.957031 601.09375 694.863281 602.929688 694.742188 C 603.523438 694.703125 604.113281 694.648438 604.707031 694.609375 C 605.945312 694.515625 607.191406 694.425781 608.421875 694.3125 C 609.109375 694.25 609.800781 694.171875 610.480469 694.105469 C 611.625 693.988281 612.769531 693.875 613.902344 693.742188 C 614.609375 693.660156 615.308594 693.566406 616.011719 693.476562 C 617.136719 693.339844 618.253906 693.195312 619.371094 693.03125 C 620.0625 692.933594 620.746094 692.828125 621.433594 692.726562 C 622.570312 692.550781 623.707031 692.367188 624.84375 692.175781 C 625.488281 692.070312 626.132812 691.957031 626.777344 691.839844 C 627.972656 691.625 629.167969 691.398438 630.363281 691.164062 C 630.929688 691.050781 631.5 690.945312 632.066406 690.824219 C 633.382812 690.550781 634.691406 690.269531 636 689.976562 C 636.433594 689.875 636.863281 689.78125 637.300781 689.6875 C 638.878906 689.320312 640.453125 688.933594 642.027344 688.53125 C 642.179688 688.492188 642.332031 688.460938 642.480469 688.417969 C 732.800781 665.09375 800.945312 584.125 804.640625 487.773438 C 808.027344 399.699219 758.636719 322.816406 685.546875 286.160156 " fill-opacity="1" fill-rule="nonzero"/></g><g clip-path="url(#66f5fd151a)"><g clip-path="url(#59dc16c3cf)"><path fill="#486e7f" d="M 283.5 516.96875 L 293.03125 516.96875 L 293.03125 526.5 L 283.5 526.5 Z M 283.5 516.96875 " fill-opacity="1" fill-rule="nonzero"/></g></g></svg>