<svg xmlns="http://www.w3.org/2000/svg" xmlns:xlink="http://www.w3.org/1999/xlink" width="1080" zoomAndPan="magnify" viewBox="0 0 810 809.999993" height="1080" preserveAspectRatio="xMidYMid meet" version="1.0"><defs><clipPath id="4c9e683dcb"><path d="M 36.925781 420.484375 L 46.457031 420.484375 L 46.457031 430.015625 L 36.925781 430.015625 Z M 36.925781 420.484375 " clip-rule="nonzero"/></clipPath><clipPath id="c88b03a902"><path d="M 41.691406 420.484375 C 39.058594 420.484375 36.925781 422.617188 36.925781 425.25 C 36.925781 427.882812 39.058594 430.015625 41.691406 430.015625 C 44.324219 430.015625 46.457031 427.882812 46.457031 425.25 C 46.457031 422.617188 44.324219 420.484375 41.691406 420.484375 Z M 41.691406 420.484375 " clip-rule="nonzero"/></clipPath><clipPath id="f7189369e4"><path d="M 5 7 L 798 7 L 798 798 L 5 798 Z M 5 7 " clip-rule="nonzero"/></clipPath><clipPath id="cd84cb5050"><path d="M 677.777344 -67.832031 L 977.949219 607.1875 L 300.191406 908.578125 L 0.0195312 233.558594 Z M 677.777344 -67.832031 " clip-rule="nonzero"/></clipPath><clipPath id="9eeb339021"><path d="M 677.777344 -67.832031 L 977.949219 607.1875 L 300.191406 908.578125 L 0.0195312 233.558594 Z M 677.777344 -67.832031 " clip-rule="nonzero"/></clipPath></defs><g clip-path="url(#4c9e683dcb)"><g clip-path="url(#c88b03a902)"><path fill="#ffffff" d="M 36.925781 420.484375 L 46.457031 420.484375 L 46.457031 430.015625 L 36.925781 430.015625 Z M 36.925781 420.484375 " fill-opacity="1" fill-rule="nonzero"/></g></g><g clip-path="url(#f7189369e4)"><g clip-path="url(#cd84cb5050)"><g clip-path="url(#9eeb339021)"><path fill="#ffffff" d="M 605.652344 682.0625 C 597.820312 660.945312 582.621094 644.972656 564.445312 635.613281 C 551.613281 629.171875 552.449219 610.738281 565.449219 604.960938 L 735.753906 529.226562 C 744.332031 525.410156 748.230469 515.269531 744.414062 506.691406 L 666.71875 331.96875 C 660.707031 318.445312 673.300781 304.75 687.632812 308.964844 C 707.105469 314.941406 728.6875 313.753906 748.476562 304.328125 C 788.171875 285.742188 807.375 238.589844 792.167969 197.390625 C 774.910156 150.878906 722.265625 129.132812 677.542969 149.019531 C 658.042969 157.691406 643.484375 172.574219 635.167969 190.285156 C 628.960938 203.636719 609.976562 203.667969 603.964844 190.148438 L 527.308594 17.765625 C 523.492188 9.1875 513.351562 5.289062 504.769531 9.101562 L 334.207031 84.949219 C 321.207031 90.730469 320.488281 109.425781 333.320312 115.863281 C 351.753906 125.105469 367.070312 141.339844 374.902344 162.460938 C 389.90625 202.5 372.03125 248.441406 333.957031 267.867188 C 289.871094 290.582031 236.707031 271.871094 216.820312 227.152344 C 208.496094 208.429688 207.25 188.121094 212.53125 169.890625 C 216.34375 156.046875 202.242188 143.945312 189.242188 149.726562 L 16.078125 226.730469 C 7.496094 230.546875 3.597656 240.6875 7.414062 249.269531 L 83.957031 421.390625 C 89.851562 434.652344 108.691406 434.992188 114.898438 421.644531 C 123.765625 403.066406 138.84375 387.953125 159.472656 379.714844 C 199.308594 363.554688 245.714844 379.667969 266.4375 417.164062 C 290.917969 461.710938 271.367188 516.492188 225.867188 536.726562 C 206.367188 545.398438 186.085938 546.011719 167.101562 540.4375 C 153.40625 536.25 141.160156 550.730469 146.941406 563.730469 L 224.40625 737.933594 C 228.222656 746.511719 238.363281 750.410156 246.945312 746.59375 L 419.585938 669.824219 C 432.585938 664.042969 446.832031 675.769531 443.023438 689.609375 C 438.113281 707.984375 439.128906 727.777344 447.453125 746.496094 C 467.339844 791.21875 521.113281 810.59375 565.226562 787.238281 C 603.070312 767.296875 620.28125 721.960938 605.652344 682.0625 Z M 605.652344 682.0625 " fill-opacity="1" fill-rule="nonzero"/></g></g></g></svg>