<svg xmlns="http://www.w3.org/2000/svg" xmlns:xlink="http://www.w3.org/1999/xlink" width="1080" zoomAndPan="magnify" viewBox="0 0 810 809.999993" height="1080" preserveAspectRatio="xMidYMid meet" version="1.0"><defs><clipPath id="9b44f10ba8"><path d="M 36.925781 420.484375 L 46.457031 420.484375 L 46.457031 430.015625 L 36.925781 430.015625 Z M 36.925781 420.484375 " clip-rule="nonzero"/></clipPath><clipPath id="01084cac7f"><path d="M 41.691406 420.484375 C 39.058594 420.484375 36.925781 422.617188 36.925781 425.25 C 36.925781 427.882812 39.058594 430.015625 41.691406 430.015625 C 44.324219 430.015625 46.457031 427.882812 46.457031 425.25 C 46.457031 422.617188 44.324219 420.484375 41.691406 420.484375 Z M 41.691406 420.484375 " clip-rule="nonzero"/></clipPath><clipPath id="2ac3a84f52"><path d="M 145 5.957031 L 667 5.957031 L 667 805 L 145 805 Z M 145 5.957031 " clip-rule="nonzero"/></clipPath></defs><g clip-path="url(#9b44f10ba8)"><g clip-path="url(#01084cac7f)"><path fill="#ffffff" d="M 36.925781 420.484375 L 46.457031 420.484375 L 46.457031 430.015625 L 36.925781 430.015625 Z M 36.925781 420.484375 " fill-opacity="1" fill-rule="nonzero"/></g></g><g clip-path="url(#2ac3a84f52)"><path fill="#486e7f" d="M 300.769531 5.957031 L 557.722656 5.957031 C 579.71875 5.957031 593.574219 29.644531 582.789062 48.8125 L 451.175781 282.789062 C 448.761719 287.085938 451.867188 292.394531 456.792969 292.394531 L 633.269531 292.394531 C 661.664062 292.394531 677.023438 325.65625 658.613281 347.273438 L 275.378906 797.152344 C 259.367188 815.949219 229.347656 797.964844 238.359375 774.980469 L 366.238281 448.886719 C 367.898438 444.65625 364.78125 440.085938 360.238281 440.085938 L 178.972656 440.085938 C 156.164062 440.085938 140.109375 417.667969 147.457031 396.074219 L 273.546875 25.453125 C 277.511719 13.792969 288.457031 5.957031 300.769531 5.957031 Z M 300.769531 5.957031 " fill-opacity="1" fill-rule="nonzero"/></g></svg>