<svg xmlns="http://www.w3.org/2000/svg" xmlns:xlink="http://www.w3.org/1999/xlink" width="1080" zoomAndPan="magnify" viewBox="0 0 810 809.999993" height="1080" preserveAspectRatio="xMidYMid meet" version="1.0"><defs><clipPath id="0d84520bff"><path d="M 15.1875 15.1875 L 795 15.1875 L 795 795 L 15.1875 795 Z M 15.1875 15.1875 " clip-rule="nonzero"/></clipPath><clipPath id="1bc20da046"><path d="M 36.925781 420.484375 L 46.457031 420.484375 L 46.457031 430.015625 L 36.925781 430.015625 Z M 36.925781 420.484375 " clip-rule="nonzero"/></clipPath><clipPath id="05a7f0716c"><path d="M 41.691406 420.484375 C 39.058594 420.484375 36.925781 422.617188 36.925781 425.25 C 36.925781 427.882812 39.058594 430.015625 41.691406 430.015625 C 44.324219 430.015625 46.457031 427.882812 46.457031 425.25 C 46.457031 422.617188 44.324219 420.484375 41.691406 420.484375 Z M 41.691406 420.484375 " clip-rule="nonzero"/></clipPath></defs><g clip-path="url(#0d84520bff)"><path fill="#ffffff" d="M 405 15.1875 C 189.707031 15.1875 15.1875 189.707031 15.1875 405 C 15.1875 620.292969 189.707031 794.8125 405 794.8125 C 620.292969 794.8125 794.8125 620.292969 794.8125 405 C 794.8125 189.707031 620.292969 15.1875 405 15.1875 Z M 505.804688 560.925781 L 377.441406 432.558594 C 370.113281 425.230469 366.019531 415.328125 366.019531 405 L 366.019531 210.09375 C 366.019531 188.574219 383.480469 171.113281 405 171.113281 C 426.519531 171.113281 443.980469 188.574219 443.980469 210.09375 L 443.980469 388.863281 L 560.925781 505.804688 C 576.128906 521.007812 576.128906 545.722656 560.925781 560.925781 C 545.722656 576.128906 521.007812 576.128906 505.804688 560.925781 Z M 505.804688 560.925781 " fill-opacity="1" fill-rule="nonzero"/></g><g clip-path="url(#1bc20da046)"><g clip-path="url(#05a7f0716c)"><path fill="#ffffff" d="M 36.925781 420.484375 L 46.457031 420.484375 L 46.457031 430.015625 L 36.925781 430.015625 Z M 36.925781 420.484375 " fill-opacity="1" fill-rule="nonzero"/></g></g></svg>